<svg width="958" height="832" viewBox="0 0 958 832" fill="none" xmlns="http://www.w3.org/2000/svg">
<g filter="url(#filter0_f_61_29)">
<path d="M459.76 842.542C609.061 780.95 457.246 329.23 457.62 104.048C457.855 -37.8287 281.27 -222.074 215.572 -381.326C137.484 -570.614 488.486 -668.306 365.602 -771.53C221.014 -892.988 -256.111 -975.336 -387.67 -921.063C-631.038 -820.665 -690.539 -405.275 -520.569 6.73576C-350.599 418.747 216.393 942.94 459.76 842.542Z" fill="url(#paint0_radial_61_29)" fill-opacity="0.8"/>
</g>
<g filter="url(#filter1_f_61_29)">
<path d="M225.735 409.957C316.415 372.548 306.488 139.966 203.561 -109.53C100.635 -359.026 -56.3135 -530.956 -146.994 -493.547C-237.674 -456.138 -227.747 -223.556 -124.82 25.9397C-21.8944 275.435 135.054 447.366 225.735 409.957Z" fill="url(#paint1_linear_61_29)" fill-opacity="0.9"/>
</g>
<g filter="url(#filter2_f_61_29)">
<path d="M-73.0732 -161.111C19.4719 -199.289 61.3234 -310.647 20.4047 -409.834C-20.5139 -509.022 -128.708 -558.481 -221.253 -520.302C-313.798 -482.124 -355.649 -370.767 -314.73 -271.579C-273.812 -172.391 -165.618 -122.933 -73.0732 -161.111Z" fill="#FFC700" fill-opacity="0.37"/>
</g>
<defs>
<filter id="filter0_f_61_29" x="-917.447" y="-1238.09" width="1742.93" height="2393.15" filterUnits="userSpaceOnUse" color-interpolation-filters="sRGB">
<feFlood flood-opacity="0" result="BackgroundImageFix"/>
<feBlend mode="normal" in="SourceGraphic" in2="BackgroundImageFix" result="shape"/>
<feGaussianBlur stdDeviation="150" result="effect1_foregroundBlur_61_29"/>
</filter>
<filter id="filter1_f_61_29" x="-409.008" y="-698.659" width="896.757" height="1313.73" filterUnits="userSpaceOnUse" color-interpolation-filters="sRGB">
<feFlood flood-opacity="0" result="BackgroundImageFix"/>
<feBlend mode="normal" in="SourceGraphic" in2="BackgroundImageFix" result="shape"/>
<feGaussianBlur stdDeviation="100" result="effect1_foregroundBlur_61_29"/>
</filter>
<filter id="filter2_f_61_29" x="-530.425" y="-733.199" width="766.524" height="784.984" filterUnits="userSpaceOnUse" color-interpolation-filters="sRGB">
<feFlood flood-opacity="0" result="BackgroundImageFix"/>
<feBlend mode="normal" in="SourceGraphic" in2="BackgroundImageFix" result="shape"/>
<feGaussianBlur stdDeviation="100" result="effect1_foregroundBlur_61_29"/>
</filter>
<radialGradient id="paint0_radial_61_29" cx="0" cy="0" r="1" gradientUnits="userSpaceOnUse" gradientTransform="translate(-98.7195 -322.905) rotate(53.1768) scale(685.301 507.588)">
<stop stop-color="#FFA00B"/>
<stop offset="0.515625" stop-color="#FF46B5" stop-opacity="0.48"/>
<stop offset="0.97709" stop-color="#0055FF" stop-opacity="0.27"/>
</radialGradient>
<linearGradient id="paint1_linear_61_29" x1="-13.3297" y1="-168.357" x2="219.903" y2="358.19" gradientUnits="userSpaceOnUse">
<stop stop-color="#FFA771" stop-opacity="0.39"/>
<stop offset="0.41282" stop-color="#FF3A3A" stop-opacity="0.39"/>
<stop offset="1" stop-color="#E9C2FC" stop-opacity="0"/>
</linearGradient>
</defs>
</svg>
