<svg width="1280" height="437" viewBox="0 0 1280 437" fill="none" xmlns="http://www.w3.org/2000/svg">
<g filter="url(#filter0_f_98_3)">
<path d="M275.186 623.774C243.604 885.137 576.699 1140.36 1019.17 1193.82C1461.65 1247.29 1845.95 1078.76 1877.53 817.393C1909.11 556.031 1716.48 -81.4976 1274 -134.964C1074.45 -159.077 1049.03 187.923 867.002 304.536C645.42 446.491 292.524 480.286 275.186 623.774Z" fill="url(#paint0_radial_98_3)" fill-opacity="0.8"/>
</g>
<g filter="url(#filter1_f_98_3)">
<path d="M522.309 496.332C510.542 593.717 718.213 698.909 986.157 731.286C1254.1 763.663 1480.85 710.963 1492.62 613.578C1504.39 516.193 1296.71 411 1028.77 378.624C760.827 346.247 534.077 398.946 522.309 496.332Z" fill="url(#paint1_linear_98_3)" fill-opacity="0.9"/>
</g>
<g filter="url(#filter2_f_98_3)">
<path d="M1084.75 667.494C1072.74 766.882 1149.36 857.886 1255.88 870.758C1362.4 883.629 1458.49 813.494 1470.5 714.106C1482.51 614.718 1405.89 523.714 1299.37 510.843C1192.85 497.971 1096.76 568.107 1084.75 667.494Z" fill="#FF9C00" fill-opacity="0.33"/>
</g>
<g filter="url(#filter3_f_98_3)">
<path d="M602.499 647.49C623.21 283.193 404.767 -72.5408 114.593 -147.064C-175.581 -221.587 -427.603 13.3206 -448.314 377.617C-469.025 741.913 -342.696 1630.52 -52.5221 1705.05C78.3455 1738.66 95.0148 1255 214.387 1092.46C359.7 894.594 591.129 847.489 602.499 647.49Z" fill="url(#paint2_radial_98_3)" fill-opacity="0.8"/>
</g>
<g filter="url(#filter4_f_98_3)">
<path d="M940.61 476.27C948.327 340.531 573.826 421.898 398.11 376.77C222.393 331.642 83.6901 284.731 75.973 420.47C68.2559 556.209 204.446 702.83 380.163 747.958C555.879 793.086 932.893 612.008 940.61 476.27Z" fill="url(#paint3_linear_98_3)" fill-opacity="0.9"/>
</g>
<g filter="url(#filter5_f_98_3)">
<path d="M122.543 491.972C134.649 704.903 36.1824 785.169 -32.2509 802.745C-100.684 820.32 -165.974 661.953 -178.079 449.022C-190.185 236.092 -144.522 49.2298 -76.0892 31.6546C-7.65589 14.0794 110.438 279.041 122.543 491.972Z" fill="#FF9C00" fill-opacity="0.33"/>
</g>
<defs>
<filter id="filter0_f_98_3" x="73.1131" y="-336.16" width="2007.74" height="1739.88" filterUnits="userSpaceOnUse" color-interpolation-filters="sRGB">
<feFlood flood-opacity="0" result="BackgroundImageFix"/>
<feBlend mode="normal" in="SourceGraphic" in2="BackgroundImageFix" result="shape"/>
<feGaussianBlur stdDeviation="100" result="effect1_foregroundBlur_98_3"/>
</filter>
<filter id="filter1_f_98_3" x="321.833" y="169.084" width="1371.26" height="771.742" filterUnits="userSpaceOnUse" color-interpolation-filters="sRGB">
<feFlood flood-opacity="0" result="BackgroundImageFix"/>
<feBlend mode="normal" in="SourceGraphic" in2="BackgroundImageFix" result="shape"/>
<feGaussianBlur stdDeviation="100" result="effect1_foregroundBlur_98_3"/>
</filter>
<filter id="filter2_f_98_3" x="883.508" y="309.32" width="788.228" height="762.961" filterUnits="userSpaceOnUse" color-interpolation-filters="sRGB">
<feFlood flood-opacity="0" result="BackgroundImageFix"/>
<feBlend mode="normal" in="SourceGraphic" in2="BackgroundImageFix" result="shape"/>
<feGaussianBlur stdDeviation="100" result="effect1_foregroundBlur_98_3"/>
</filter>
<filter id="filter3_f_98_3" x="-650.496" y="-360.857" width="1454.35" height="2267.57" filterUnits="userSpaceOnUse" color-interpolation-filters="sRGB">
<feFlood flood-opacity="0" result="BackgroundImageFix"/>
<feBlend mode="normal" in="SourceGraphic" in2="BackgroundImageFix" result="shape"/>
<feGaussianBlur stdDeviation="100" result="effect1_foregroundBlur_98_3"/>
</filter>
<filter id="filter4_f_98_3" x="-124.339" y="130.79" width="1265.07" height="824.218" filterUnits="userSpaceOnUse" color-interpolation-filters="sRGB">
<feFlood flood-opacity="0" result="BackgroundImageFix"/>
<feBlend mode="normal" in="SourceGraphic" in2="BackgroundImageFix" result="shape"/>
<feGaussianBlur stdDeviation="100" result="effect1_foregroundBlur_98_3"/>
</filter>
<filter id="filter5_f_98_3" x="-380.024" y="-169.176" width="703.586" height="1173.25" filterUnits="userSpaceOnUse" color-interpolation-filters="sRGB">
<feFlood flood-opacity="0" result="BackgroundImageFix"/>
<feBlend mode="normal" in="SourceGraphic" in2="BackgroundImageFix" result="shape"/>
<feGaussianBlur stdDeviation="100" result="effect1_foregroundBlur_98_3"/>
</filter>
<radialGradient id="paint0_radial_98_3" cx="0" cy="0" r="1" gradientUnits="userSpaceOnUse" gradientTransform="translate(1275.76 744.678) rotate(-162.669) scale(816.319 604.63)">
<stop stop-color="#FFE3B7"/>
<stop offset="0.515625" stop-color="#FF0099" stop-opacity="0.35"/>
<stop offset="1" stop-color="#0055FF" stop-opacity="0.17"/>
</radialGradient>
<linearGradient id="paint1_linear_98_3" x1="1285.68" y1="327.712" x2="568.149" y2="515.302" gradientUnits="userSpaceOnUse">
<stop stop-color="#FF6100" stop-opacity="0.15"/>
<stop offset="0.41282" stop-color="#FF4646" stop-opacity="0.51"/>
<stop offset="1" stop-color="#AD00FF" stop-opacity="0"/>
</linearGradient>
<radialGradient id="paint2_radial_98_3" cx="0" cy="0" r="1" gradientUnits="userSpaceOnUse" gradientTransform="translate(-53.6743 478.969) rotate(-15.6632) scale(462.742 687.125)">
<stop stop-color="#FFE3B7"/>
<stop offset="0.515625" stop-color="#FF0099" stop-opacity="0.35"/>
<stop offset="0.97709" stop-color="#0256FF" stop-opacity="0.17"/>
</radialGradient>
<linearGradient id="paint3_linear_98_3" x1="211.681" y1="818.921" x2="706.906" y2="758.005" gradientUnits="userSpaceOnUse">
<stop stop-color="#FF6100" stop-opacity="0.15"/>
<stop offset="0.41282" stop-color="#FF4646" stop-opacity="0.51"/>
<stop offset="1" stop-color="#AD00FF" stop-opacity="0"/>
</linearGradient>
</defs>
</svg>
