<svg width="867" height="792" viewBox="0 0 867 792" fill="none" xmlns="http://www.w3.org/2000/svg">
<g filter="url(#filter0_f_64_71)">
<path d="M-105.576 -84.0149C-158.277 81.8246 -99.4841 272.025 25.7421 340.809C150.968 409.594 295.207 330.915 347.909 165.075C400.61 -0.76419 447.464 -426.228 322.238 -495.012C265.761 -526.033 200.794 -304.573 126.403 -243.62C35.8462 -169.42 -76.6425 -175.061 -105.576 -84.0149Z" fill="url(#paint0_radial_64_71)" fill-opacity="0.8"/>
</g>
<g filter="url(#filter1_f_64_71)">
<path d="M-44.6301 96.6725C-3.49087 -112.597 111.821 -165.903 182.475 -165.938C253.129 -165.972 277.056 3.64617 235.916 212.915C194.777 422.184 104.151 591.858 33.4966 591.893C-37.1575 591.927 -85.7694 305.942 -44.6301 96.6725Z" fill="#0C24FF" fill-opacity="0.37"/>
</g>
<g filter="url(#filter2_f_64_71)">
<path d="M-199.228 115.063C-203.89 250.941 168.686 161.172 345.373 202.336C522.06 243.501 661.783 287.28 666.445 151.402C671.107 15.5238 531.654 -127.997 354.967 -169.162C178.28 -210.326 -194.565 -20.8152 -199.228 115.063Z" fill="url(#paint1_linear_64_71)" fill-opacity="0.9"/>
</g>
<g filter="url(#filter3_f_64_71)">
<path d="M-110 -83.7335C-110 16.3773 -23.0189 97.533 84.2778 97.533C191.574 97.533 278.556 16.3773 278.556 -83.7335C278.556 -183.844 191.574 -265 84.2778 -265C-23.0189 -265 -110 -183.844 -110 -83.7335Z" fill="#FFC700" fill-opacity="0.37"/>
</g>
<defs>
<filter id="filter0_f_64_71" x="-374.901" y="-747.974" width="1026.93" height="1363.67" filterUnits="userSpaceOnUse" color-interpolation-filters="sRGB">
<feFlood flood-opacity="0" result="BackgroundImageFix"/>
<feBlend mode="normal" in="SourceGraphic" in2="BackgroundImageFix" result="shape"/>
<feGaussianBlur stdDeviation="125" result="effect1_foregroundBlur_64_71"/>
</filter>
<filter id="filter1_f_64_71" x="-259.717" y="-365.938" width="715.763" height="1157.83" filterUnits="userSpaceOnUse" color-interpolation-filters="sRGB">
<feFlood flood-opacity="0" result="BackgroundImageFix"/>
<feBlend mode="normal" in="SourceGraphic" in2="BackgroundImageFix" result="shape"/>
<feGaussianBlur stdDeviation="100" result="effect1_foregroundBlur_64_71"/>
</filter>
<filter id="filter2_f_64_71" x="-399.271" y="-374.892" width="1265.83" height="818.179" filterUnits="userSpaceOnUse" color-interpolation-filters="sRGB">
<feFlood flood-opacity="0" result="BackgroundImageFix"/>
<feBlend mode="normal" in="SourceGraphic" in2="BackgroundImageFix" result="shape"/>
<feGaussianBlur stdDeviation="100" result="effect1_foregroundBlur_64_71"/>
</filter>
<filter id="filter3_f_64_71" x="-310" y="-465" width="788.556" height="762.533" filterUnits="userSpaceOnUse" color-interpolation-filters="sRGB">
<feFlood flood-opacity="0" result="BackgroundImageFix"/>
<feBlend mode="normal" in="SourceGraphic" in2="BackgroundImageFix" result="shape"/>
<feGaussianBlur stdDeviation="100" result="effect1_foregroundBlur_64_71"/>
</filter>
<radialGradient id="paint0_radial_64_71" cx="0" cy="0" r="1" gradientUnits="userSpaceOnUse" gradientTransform="translate(53.5001 -48.5) rotate(30.3876) scale(503.117 747.077)">
<stop offset="0.333333" stop-color="#5C33FF" stop-opacity="0.35"/>
<stop offset="0.666667" stop-color="#0057FF" stop-opacity="0.63"/>
<stop offset="1" stop-color="#0029FF" stop-opacity="0.98"/>
</radialGradient>
<linearGradient id="paint1_linear_64_71" x1="555" y1="-15" x2="115.24" y2="-149.03" gradientUnits="userSpaceOnUse">
<stop stop-color="#FF007A" stop-opacity="0.21"/>
<stop offset="1" stop-color="#AD00FF" stop-opacity="0.51"/>
</linearGradient>
</defs>
</svg>
