<svg width="1280" height="4160" viewBox="0 0 1280 4160" fill="none" xmlns="http://www.w3.org/2000/svg">
<rect width="1280" height="4160" fill="#1E1E1E"/>
<rect width="1280" height="832" transform="translate(0 832)" fill="#060A1E"/>
<rect width="1280" height="832" transform="translate(0 1664)" fill="#060A1E"/>
<rect width="1280" height="832" transform="translate(0 2496)" fill="#060A1E"/>
<g clip-path="url(#clip0_29_75)">
<rect width="1280" height="832" transform="translate(0 3328)" fill="#060A1E"/>
<g filter="url(#filter0_f_29_75)">
<path d="M275.184 4252.77C243.602 4514.14 576.697 4769.36 1019.17 4822.82C1461.65 4876.29 1845.95 4707.75 1877.53 4446.39C1909.11 4185.03 1716.48 3547.5 1274 3494.04C1074.44 3469.92 1049.03 3816.92 867 3933.54C645.418 4075.49 292.522 4109.29 275.184 4252.77Z" fill="url(#paint0_radial_29_75)" fill-opacity="0.8"/>
</g>
<path d="M1419.84 4412.7C1409.55 4497.91 1333.43 4630.84 1430.82 4642.61C1479.63 4648.5 1615.57 4539.72 1678.06 4496.34C1740.27 4453.15 1846.74 4473.84 1851.88 4431.33C1862.17 4346.12 1656.88 4190.69 1559.48 4178.93C1462.09 4167.16 1430.14 4327.49 1419.84 4412.7Z" fill="#E3EBED" fill-opacity="0.8"/>
<g filter="url(#filter2_f_29_75)">
<path d="M442.628 4231.15C430.86 4328.54 638.532 4433.73 906.475 4466.11C1174.42 4498.49 1401.17 4445.79 1412.94 4348.4C1424.7 4251.02 1217.03 4145.82 949.089 4113.45C681.146 4081.07 454.395 4133.77 442.628 4231.15Z" fill="url(#paint1_linear_29_75)" fill-opacity="0.9"/>
</g>
<g filter="url(#filter3_f_29_75)">
<path d="M1084.75 4296.49C1072.74 4395.88 1149.35 4486.89 1255.87 4499.76C1362.4 4512.63 1458.49 4442.49 1470.49 4343.1C1482.5 4243.72 1405.89 4152.71 1299.36 4139.84C1192.84 4126.97 1096.75 4197.11 1084.75 4296.49Z" fill="#FF9C00" fill-opacity="0.33"/>
</g>
<g filter="url(#filter4_f_29_75)">
<path d="M602.498 4279.49C623.209 3915.19 404.766 3559.46 114.592 3484.94C-175.582 3410.41 -427.605 3645.32 -448.316 4009.62C-469.027 4373.91 -342.698 5262.52 -52.5235 5337.05C78.3441 5370.66 95.0135 4887 214.386 4724.46C359.699 4526.59 591.127 4479.49 602.498 4279.49Z" fill="url(#paint2_radial_29_75)" fill-opacity="0.8"/>
</g>
<g filter="url(#filter5_f_29_75)">
<path d="M938.61 4168.26C946.327 4032.53 571.826 4113.89 396.11 4068.76C220.393 4023.64 81.6902 3976.73 73.9731 4112.47C66.256 4248.2 202.447 4394.83 378.163 4439.95C553.88 4485.08 930.893 4304 938.61 4168.26Z" fill="url(#paint3_linear_29_75)" fill-opacity="0.9"/>
</g>
<g filter="url(#filter6_f_29_75)">
<path d="M122.542 4120.97C134.648 4333.9 36.1811 4414.17 -32.2522 4431.74C-100.685 4449.32 -165.975 4290.95 -178.081 4078.02C-190.186 3865.09 -144.524 3678.23 -76.0905 3660.65C-7.65724 3643.08 110.436 3908.04 122.542 4120.97Z" fill="#FF9C00" fill-opacity="0.33"/>
</g>
</g>
<g clip-path="url(#clip1_29_75)">
<rect width="1280" height="832" fill="#060A1E"/>
<g filter="url(#filter7_f_29_75)">
<path d="M-282.5 -34.5C-282.5 127.006 192.979 158.933 401 245.153C532.065 299.477 769.729 206.5 942 206.5C1146.76 206.5 1103.21 568.231 1245.5 494C1412.92 406.657 1671 -3.00555 1671 -145.319C1671 -408.583 1309.69 -622 864 -622C418.306 -622 -282.5 -297.764 -282.5 -34.5Z" fill="url(#paint4_radial_29_75)" fill-opacity="0.8"/>
</g>
<g filter="url(#filter8_f_29_75)">
<path d="M1202.13 -60.9493C1169.5 28.3479 1059.87 154.681 1151.99 188.347C1198.15 205.218 1359.89 117.728 1432.49 84.6199C1504.76 51.6617 1603.39 96.8782 1619.67 52.3308C1652.31 -36.9664 1492.71 -248.225 1400.59 -281.891C1308.47 -315.557 1234.76 -150.247 1202.13 -60.9493Z" fill="#E9C2FC" fill-opacity="0.1"/>
</g>
<g filter="url(#filter9_f_29_75)">
<path d="M206.642 -85.8691C206.642 12.2243 425.433 91.7447 695.325 91.7447C965.217 91.7447 1184.01 12.2243 1184.01 -85.8691C1184.01 -183.963 965.217 -263.483 695.325 -263.483C425.433 -263.483 206.642 -183.963 206.642 -85.8691Z" fill="url(#paint5_linear_29_75)" fill-opacity="0.9"/>
</g>
<g filter="url(#filter10_f_29_75)">
<path d="M848.505 -144.313C848.505 -44.202 935.487 36.9538 1042.78 36.9538C1150.08 36.9538 1237.06 -44.202 1237.06 -144.313C1237.06 -244.423 1150.08 -325.579 1042.78 -325.579C935.487 -325.579 848.505 -244.423 848.505 -144.313Z" fill="#FFC700" fill-opacity="0.37"/>
</g>
</g>
<defs>
<filter id="filter0_f_29_75" x="73.111" y="3292.84" width="2007.74" height="1739.88" filterUnits="userSpaceOnUse" color-interpolation-filters="sRGB">
<feFlood flood-opacity="0" result="BackgroundImageFix"/>
<feBlend mode="normal" in="SourceGraphic" in2="BackgroundImageFix" result="shape"/>
<feGaussianBlur stdDeviation="100" result="effect1_foregroundBlur_29_75"/>
</filter>
<filter id="filter2_f_29_75" x="242.152" y="3903.91" width="1371.26" height="771.742" filterUnits="userSpaceOnUse" color-interpolation-filters="sRGB">
<feFlood flood-opacity="0" result="BackgroundImageFix"/>
<feBlend mode="normal" in="SourceGraphic" in2="BackgroundImageFix" result="shape"/>
<feGaussianBlur stdDeviation="100" result="effect1_foregroundBlur_29_75"/>
</filter>
<filter id="filter3_f_29_75" x="883.506" y="3938.32" width="788.228" height="762.961" filterUnits="userSpaceOnUse" color-interpolation-filters="sRGB">
<feFlood flood-opacity="0" result="BackgroundImageFix"/>
<feBlend mode="normal" in="SourceGraphic" in2="BackgroundImageFix" result="shape"/>
<feGaussianBlur stdDeviation="100" result="effect1_foregroundBlur_29_75"/>
</filter>
<filter id="filter4_f_29_75" x="-650.498" y="3271.14" width="1454.35" height="2267.57" filterUnits="userSpaceOnUse" color-interpolation-filters="sRGB">
<feFlood flood-opacity="0" result="BackgroundImageFix"/>
<feBlend mode="normal" in="SourceGraphic" in2="BackgroundImageFix" result="shape"/>
<feGaussianBlur stdDeviation="100" result="effect1_foregroundBlur_29_75"/>
</filter>
<filter id="filter5_f_29_75" x="-126.339" y="3822.78" width="1265.07" height="824.218" filterUnits="userSpaceOnUse" color-interpolation-filters="sRGB">
<feFlood flood-opacity="0" result="BackgroundImageFix"/>
<feBlend mode="normal" in="SourceGraphic" in2="BackgroundImageFix" result="shape"/>
<feGaussianBlur stdDeviation="100" result="effect1_foregroundBlur_29_75"/>
</filter>
<filter id="filter6_f_29_75" x="-380.026" y="3459.82" width="703.586" height="1173.25" filterUnits="userSpaceOnUse" color-interpolation-filters="sRGB">
<feFlood flood-opacity="0" result="BackgroundImageFix"/>
<feBlend mode="normal" in="SourceGraphic" in2="BackgroundImageFix" result="shape"/>
<feGaussianBlur stdDeviation="100" result="effect1_foregroundBlur_29_75"/>
</filter>
<filter id="filter7_f_29_75" x="-582.5" y="-922" width="2553.5" height="1726.04" filterUnits="userSpaceOnUse" color-interpolation-filters="sRGB">
<feFlood flood-opacity="0" result="BackgroundImageFix"/>
<feBlend mode="normal" in="SourceGraphic" in2="BackgroundImageFix" result="shape"/>
<feGaussianBlur stdDeviation="150" result="effect1_foregroundBlur_29_75"/>
</filter>
<filter id="filter8_f_29_75" x="1015.93" y="-386.346" width="708.069" height="676.831" filterUnits="userSpaceOnUse" color-interpolation-filters="sRGB">
<feFlood flood-opacity="0" result="BackgroundImageFix"/>
<feBlend mode="normal" in="SourceGraphic" in2="BackgroundImageFix" result="shape"/>
<feGaussianBlur stdDeviation="50" result="effect1_foregroundBlur_29_75"/>
</filter>
<filter id="filter9_f_29_75" x="6.64166" y="-463.483" width="1377.37" height="755.228" filterUnits="userSpaceOnUse" color-interpolation-filters="sRGB">
<feFlood flood-opacity="0" result="BackgroundImageFix"/>
<feBlend mode="normal" in="SourceGraphic" in2="BackgroundImageFix" result="shape"/>
<feGaussianBlur stdDeviation="100" result="effect1_foregroundBlur_29_75"/>
</filter>
<filter id="filter10_f_29_75" x="648.505" y="-525.579" width="788.556" height="762.533" filterUnits="userSpaceOnUse" color-interpolation-filters="sRGB">
<feFlood flood-opacity="0" result="BackgroundImageFix"/>
<feBlend mode="normal" in="SourceGraphic" in2="BackgroundImageFix" result="shape"/>
<feGaussianBlur stdDeviation="100" result="effect1_foregroundBlur_29_75"/>
</filter>
<radialGradient id="paint0_radial_29_75" cx="0" cy="0" r="1" gradientUnits="userSpaceOnUse" gradientTransform="translate(1275.76 4373.68) rotate(172.485) scale(685.301 507.588)">
<stop stop-color="#FFE3B7"/>
<stop offset="0.515625" stop-color="#FF0099" stop-opacity="0.35"/>
<stop offset="0.97709" stop-color="#0256FF" stop-opacity="0.17"/>
</radialGradient>
<linearGradient id="paint1_linear_29_75" x1="1206" y1="4062.54" x2="488.468" y2="4250.13" gradientUnits="userSpaceOnUse">
<stop stop-color="#FF6100" stop-opacity="0.15"/>
<stop offset="0.41282" stop-color="#FF4646" stop-opacity="0.51"/>
<stop offset="1" stop-color="#AD00FF" stop-opacity="0"/>
</linearGradient>
<radialGradient id="paint2_radial_29_75" cx="0" cy="0" r="1" gradientUnits="userSpaceOnUse" gradientTransform="translate(-53.6757 4110.97) rotate(-15.6632) scale(462.742 687.125)">
<stop stop-color="#FFE3B7"/>
<stop offset="0.515625" stop-color="#FF0099" stop-opacity="0.35"/>
<stop offset="0.97709" stop-color="#0256FF" stop-opacity="0.17"/>
</radialGradient>
<linearGradient id="paint3_linear_29_75" x1="209.682" y1="4510.92" x2="704.906" y2="4450" gradientUnits="userSpaceOnUse">
<stop stop-color="#FF6100" stop-opacity="0.15"/>
<stop offset="0.41282" stop-color="#FF4646" stop-opacity="0.51"/>
<stop offset="1" stop-color="#AD00FF" stop-opacity="0"/>
</linearGradient>
<radialGradient id="paint4_radial_29_75" cx="0" cy="0" r="1" gradientUnits="userSpaceOnUse" gradientTransform="translate(1007.85 -106.319) rotate(165.595) scale(685.301 507.588)">
<stop stop-color="#FFA00B"/>
<stop offset="0.515625" stop-color="#FF46B5" stop-opacity="0.48"/>
<stop offset="0.97709" stop-color="#0055FF" stop-opacity="0.27"/>
</radialGradient>
<linearGradient id="paint5_linear_29_75" x1="832.42" y1="-86.321" x2="256.72" y2="-71.5179" gradientUnits="userSpaceOnUse">
<stop stop-color="#FFA771" stop-opacity="0.39"/>
<stop offset="0.41282" stop-color="#FF3A3A" stop-opacity="0.39"/>
<stop offset="1" stop-color="#E9C2FC" stop-opacity="0"/>
</linearGradient>
<clipPath id="clip0_29_75">
<rect width="1280" height="832" fill="white" transform="translate(0 3328)"/>
</clipPath>
<clipPath id="clip1_29_75">
<rect width="1280" height="832" fill="white"/>
</clipPath>
</defs>
</svg>
