<svg width="1280" height="805" viewBox="0 0 1280 805" fill="none" xmlns="http://www.w3.org/2000/svg">
<g filter="url(#filter0_f_56_23)">
<path d="M-282.5 -34.5C-282.5 127.006 192.979 158.933 401 245.153C532.065 299.477 769.729 206.5 942 206.5C1146.76 206.5 1103.21 568.231 1245.5 494C1412.92 406.657 1671 -3.00555 1671 -145.319C1671 -408.583 1309.69 -622 864 -622C418.306 -622 -282.5 -297.764 -282.5 -34.5Z" fill="url(#paint0_radial_56_23)" fill-opacity="0.8"/>
</g>
<g filter="url(#filter1_f_56_23)">
<path d="M206.642 -85.8691C206.642 12.2243 425.433 91.7447 695.325 91.7447C965.217 91.7447 1184.01 12.2243 1184.01 -85.8691C1184.01 -183.963 965.217 -263.483 695.325 -263.483C425.433 -263.483 206.642 -183.963 206.642 -85.8691Z" fill="url(#paint1_linear_56_23)" fill-opacity="0.9"/>
</g>
<g filter="url(#filter2_f_56_23)">
<path d="M849 -74.5C849 -12.9202 935.857 37 1043 37C1150.14 37 1237 -12.9202 1237 -74.5C1237 -136.08 1150.14 -186 1043 -186C935.857 -186 849 -136.08 849 -74.5Z" fill="#FFCF26" fill-opacity="0.5"/>
</g>
<g filter="url(#filter3_f_56_23)">
<ellipse cx="1248.38" cy="48.7208" rx="223" ry="103.638" transform="rotate(-33.1529 1248.38 48.7208)" fill="#E9C2FC" fill-opacity="0.1"/>
</g>
<defs>
<filter id="filter0_f_56_23" x="-582.5" y="-922" width="2553.5" height="1726.04" filterUnits="userSpaceOnUse" color-interpolation-filters="sRGB">
<feFlood flood-opacity="0" result="BackgroundImageFix"/>
<feBlend mode="normal" in="SourceGraphic" in2="BackgroundImageFix" result="shape"/>
<feGaussianBlur stdDeviation="150" result="effect1_foregroundBlur_56_23"/>
</filter>
<filter id="filter1_f_56_23" x="6.64166" y="-463.483" width="1377.37" height="755.228" filterUnits="userSpaceOnUse" color-interpolation-filters="sRGB">
<feFlood flood-opacity="0" result="BackgroundImageFix"/>
<feBlend mode="normal" in="SourceGraphic" in2="BackgroundImageFix" result="shape"/>
<feGaussianBlur stdDeviation="100" result="effect1_foregroundBlur_56_23"/>
</filter>
<filter id="filter2_f_56_23" x="649" y="-386" width="788" height="623" filterUnits="userSpaceOnUse" color-interpolation-filters="sRGB">
<feFlood flood-opacity="0" result="BackgroundImageFix"/>
<feBlend mode="normal" in="SourceGraphic" in2="BackgroundImageFix" result="shape"/>
<feGaussianBlur stdDeviation="100" result="effect1_foregroundBlur_56_23"/>
</filter>
<filter id="filter3_f_56_23" x="953.212" y="-200.961" width="590.327" height="499.364" filterUnits="userSpaceOnUse" color-interpolation-filters="sRGB">
<feFlood flood-opacity="0" result="BackgroundImageFix"/>
<feBlend mode="normal" in="SourceGraphic" in2="BackgroundImageFix" result="shape"/>
<feGaussianBlur stdDeviation="50" result="effect1_foregroundBlur_56_23"/>
</filter>
<radialGradient id="paint0_radial_56_23" cx="0" cy="0" r="1" gradientUnits="userSpaceOnUse" gradientTransform="translate(1007.85 -106.319) rotate(165.595) scale(685.301 507.588)">
<stop stop-color="#FFA00B"/>
<stop offset="0.515625" stop-color="#FF46B5" stop-opacity="0.48"/>
<stop offset="0.97709" stop-color="#0055FF" stop-opacity="0.27"/>
</radialGradient>
<linearGradient id="paint1_linear_56_23" x1="952" y1="-86" x2="256.733" y2="-72.5831" gradientUnits="userSpaceOnUse">
<stop stop-color="#FF3A3A" stop-opacity="0.39"/>
<stop offset="1" stop-color="#E9C2FC" stop-opacity="0"/>
</linearGradient>
</defs>
</svg>
