<svg width="1280" height="832" viewBox="0 0 1280 832" fill="none" xmlns="http://www.w3.org/2000/svg">
<g clip-path="url(#clip0_49_38)">
<rect width="1280" height="832" fill="#060A1E"/>
<g filter="url(#filter0_f_49_38)">
<path d="M-282.5 -34.5C-282.5 127.006 192.979 158.933 401 245.153C532.065 299.477 769.729 206.5 942 206.5C1146.76 206.5 1103.21 568.231 1245.5 494C1412.92 406.658 1671 -3.00557 1671 -145.319C1671 -408.583 1309.69 -622 864 -622C418.306 -622 -282.5 -297.764 -282.5 -34.5Z" fill="url(#paint0_radial_49_38)" fill-opacity="0.8"/>
</g>
<g filter="url(#filter1_f_49_38)">
<path d="M1202.13 -60.9493C1169.5 28.3479 1059.87 154.681 1151.99 188.347C1198.15 205.218 1359.89 117.728 1432.49 84.62C1504.76 51.6617 1603.39 96.8782 1619.67 52.3308C1652.31 -36.9664 1492.71 -248.225 1400.59 -281.891C1308.47 -315.557 1234.76 -150.247 1202.13 -60.9493Z" fill="#E9C2FC" fill-opacity="0.1"/>
</g>
<g filter="url(#filter2_f_49_38)">
<path d="M206.642 -85.8691C206.642 12.2243 425.433 91.7447 695.325 91.7447C965.217 91.7447 1184.01 12.2243 1184.01 -85.8691C1184.01 -183.963 965.217 -263.483 695.325 -263.483C425.433 -263.483 206.642 -183.963 206.642 -85.8691Z" fill="url(#paint1_linear_49_38)" fill-opacity="0.9"/>
</g>
<g filter="url(#filter3_f_49_38)">
<path d="M848.505 -144.313C848.505 -44.202 935.487 36.9538 1042.78 36.9538C1150.08 36.9538 1237.06 -44.202 1237.06 -144.313C1237.06 -244.423 1150.08 -325.579 1042.78 -325.579C935.487 -325.579 848.505 -244.423 848.505 -144.313Z" fill="#FFC700" fill-opacity="0.37"/>
</g>
</g>
<defs>
<filter id="filter0_f_49_38" x="-582.5" y="-922" width="2553.5" height="1726.04" filterUnits="userSpaceOnUse" color-interpolation-filters="sRGB">
<feFlood flood-opacity="0" result="BackgroundImageFix"/>
<feBlend mode="normal" in="SourceGraphic" in2="BackgroundImageFix" result="shape"/>
<feGaussianBlur stdDeviation="150" result="effect1_foregroundBlur_49_38"/>
</filter>
<filter id="filter1_f_49_38" x="1015.93" y="-386.346" width="708.069" height="676.831" filterUnits="userSpaceOnUse" color-interpolation-filters="sRGB">
<feFlood flood-opacity="0" result="BackgroundImageFix"/>
<feBlend mode="normal" in="SourceGraphic" in2="BackgroundImageFix" result="shape"/>
<feGaussianBlur stdDeviation="50" result="effect1_foregroundBlur_49_38"/>
</filter>
<filter id="filter2_f_49_38" x="6.64166" y="-463.483" width="1377.37" height="755.228" filterUnits="userSpaceOnUse" color-interpolation-filters="sRGB">
<feFlood flood-opacity="0" result="BackgroundImageFix"/>
<feBlend mode="normal" in="SourceGraphic" in2="BackgroundImageFix" result="shape"/>
<feGaussianBlur stdDeviation="100" result="effect1_foregroundBlur_49_38"/>
</filter>
<filter id="filter3_f_49_38" x="648.505" y="-525.579" width="788.556" height="762.533" filterUnits="userSpaceOnUse" color-interpolation-filters="sRGB">
<feFlood flood-opacity="0" result="BackgroundImageFix"/>
<feBlend mode="normal" in="SourceGraphic" in2="BackgroundImageFix" result="shape"/>
<feGaussianBlur stdDeviation="100" result="effect1_foregroundBlur_49_38"/>
</filter>
<radialGradient id="paint0_radial_49_38" cx="0" cy="0" r="1" gradientUnits="userSpaceOnUse" gradientTransform="translate(1007.85 -106.319) rotate(165.595) scale(685.301 507.588)">
<stop stop-color="#FFA00B"/>
<stop offset="0.515625" stop-color="#FF46B5" stop-opacity="0.48"/>
<stop offset="0.97709" stop-color="#0055FF" stop-opacity="0.27"/>
</radialGradient>
<linearGradient id="paint1_linear_49_38" x1="832.42" y1="-86.321" x2="256.72" y2="-71.5179" gradientUnits="userSpaceOnUse">
<stop stop-color="#FFA771" stop-opacity="0.39"/>
<stop offset="0.41282" stop-color="#FF3A3A" stop-opacity="0.39"/>
<stop offset="1" stop-color="#E9C2FC" stop-opacity="0"/>
</linearGradient>
<clipPath id="clip0_49_38">
<rect width="1280" height="832" fill="white"/>
</clipPath>
</defs>
</svg>
